<svg width="840" height="228" fill="none" xmlns="http://www.w3.org/2000/svg">
  <path d="M171.005 106.821a39.937 39.937 0 0 1 2.697-16.006 39.893 39.893 0 0 1 8.841-13.604 39.824 39.824 0 0 1 13.522-8.95 39.775 39.775 0 0 1 15.963-2.813 34.33 34.33 0 0 1 22.991 8.485l-10.862 15.048a15.776 15.776 0 0 0-10.645-4.677c-11.224 0-18.429 8.883-18.429 22.517 0 13.633 7.495 22.444 17.633 22.444a23.7 23.7 0 0 0 14.193-5.801l9.16 15.265A39.323 39.323 0 0 1 210 148.12c-22.05 0-38.995-15.156-38.995-41.299Z" fill="#4E41F2"/>
  <path d="M210 149.063c-23.86 0-39.828-16.969-39.828-42.242a41.529 41.529 0 0 1 3.019-16.933 41.477 41.477 0 0 1 9.618-14.25 42.47 42.47 0 0 1 29.327-11.096 35.234 35.234 0 0 1 23.607 8.702l.652.544-12.129 16.535-.761-.653a14.905 14.905 0 0 0-10.065-4.424c-10.645 0-17.488 8.485-17.488 21.575 0 13.089 6.807 21.502 16.582 21.502a22.976 22.976 0 0 0 13.614-5.621l.833-.652 10.102 16.86-.58.508A40.332 40.332 0 0 1 210 149.063Zm2.1-82.672c-26.322 0-40.117 20.342-40.117 40.43 0 24.148 15.279 40.357 38.017 40.357a38.494 38.494 0 0 0 24.729-8.63l-8.182-13.706a23.704 23.704 0 0 1-13.94 5.366c-10.862 0-18.574-9.609-18.574-23.387 0-13.779 7.531-23.424 19.298-23.424a16.28 16.28 0 0 1 10.5 4.242l9.921-13.488a33.03 33.03 0 0 0-21.724-7.76h.072ZM240.667 106.821c0-26.216 18.43-41.373 38.343-41.373 19.914 0 38.343 15.157 38.343 41.373 0 26.215-18.429 41.299-38.343 41.299-19.913 0-38.343-15.156-38.343-41.299Zm52.79 0c0-13.634-4.816-22.517-14.483-22.517-9.667 0-14.483 8.883-14.483 22.517 0 13.633 4.78 22.444 14.483 22.444 9.704 0 14.483-8.811 14.483-22.444Z" fill="#4E41F2"/>
  <path d="M279.01 149.063c-19.515 0-39.284-14.504-39.284-42.242 0-27.739 19.769-42.279 39.284-42.279 19.516 0 39.285 14.504 39.285 42.279 0 27.774-19.769 42.242-39.285 42.242Zm0-82.672c-18.61 0-37.438 13.888-37.438 40.43s18.828 40.356 37.438 40.356c18.611 0 37.402-13.851 37.402-40.356 0-26.506-18.828-40.43-37.402-40.43Zm0 63.817c-9.776 0-15.388-8.521-15.388-23.387 0-14.867 5.612-23.424 15.388-23.424s15.352 8.557 15.352 23.46-5.576 23.351-15.352 23.351Zm0-44.962c-8.581 0-13.505 7.869-13.505 21.575 0 8.013 1.738 21.502 13.505 21.502 11.768 0 13.506-13.489 13.506-21.502 0-13.706-4.925-21.575-13.506-21.575ZM328.722 106.821c0-25.6 18.104-41.373 37.149-41.373 22.412 0 33.527 16.354 33.527 37.855a54.126 54.126 0 0 1-.977 10.334h-47.214a19.047 19.047 0 0 0 6.856 12.459 18.994 18.994 0 0 0 13.565 4.221 32.732 32.732 0 0 0 17.017-5.149l7.712 14.069a51.113 51.113 0 0 1-27.916 8.883c-22.339 0-39.719-15.193-39.719-41.299Zm50.69-8.63c0-8.666-3.621-14.94-13.071-14.94-7.241 0-13.722 4.968-15.315 14.94h28.386Z" fill="#4E41F2"/>
  <path d="M368.55 149.063c-24.367 0-40.769-16.969-40.769-42.242a43.945 43.945 0 0 1 11.731-30.93 37.11 37.11 0 0 1 12.04-8.329 37.065 37.065 0 0 1 14.319-3.02c21.253 0 34.469 14.83 34.469 38.761a52.717 52.717 0 0 1-1.014 10.552l-.181.689h-46.671a18.135 18.135 0 0 0 6.778 11.132 18.087 18.087 0 0 0 12.484 3.698 31.616 31.616 0 0 0 16.547-5.04l.833-.471 8.581 15.664-.688.471a52.086 52.086 0 0 1-28.459 9.065Zm-2.679-82.672c-17.561 0-36.207 14.178-36.207 40.43 0 24.148 15.605 40.356 38.886 40.356a50.095 50.095 0 0 0 26.685-8.23l-6.844-12.51a33.42 33.42 0 0 1-16.655 4.823 19.858 19.858 0 0 1-14.178-4.438 19.918 19.918 0 0 1-7.148-13.04l-.217-1.087h47.467c.524-3.103.791-6.245.797-9.392 0-22.77-12.491-36.912-32.586-36.912Zm14.483 32.634H349.94v-1.052c1.557-9.717 7.784-15.7 16.257-15.7 9.051 0 14.012 5.62 14.012 15.845l.145.907Zm-28.206-1.85h26.323c-.218-6.163-2.571-13.053-12.13-13.053-7.241.073-12.491 4.931-14.157 13.126l-.036-.072ZM415.474 67.37h19.009l1.665 9.972h.58c6.662-6.382 14.482-11.894 25.344-11.894 17.126 0 24.44 12.111 24.44 31.8v48.95h-23.353v-45.94c0-11.35-3.042-14.903-9.776-14.903-5.866 0-9.45 2.72-14.483 7.65v53.193h-23.353l-.073-78.828Z" fill="#4E41F2"/>
  <path d="M487.417 147.141h-25.345v-46.883c0-11.676-3.258-13.96-8.87-13.96-5.612 0-8.473 2.212-13.65 7.252v53.591h-25.345V66.428h20.746l1.594 9.5a36.165 36.165 0 0 1 25.344-11.385c16.583-.001 25.345 11.312 25.345 32.633l.181 49.965Zm-23.317-1.849h21.471V97.248c0-20.45-7.893-30.857-23.499-30.857a35.338 35.338 0 0 0-24.657 11.64l-.253.253h-1.738l-1.702-9.971h-17.343v76.979h21.471V92.607l.29-.254c4.815-4.641 8.726-7.94 15.207-7.94 7.712 0 10.862 4.46 10.862 15.845l-.109 45.034ZM594.119 124.334c0-16.607 13.215-25.6 44.353-29.008-.47-6.889-3.91-11.385-12.455-11.385a43.406 43.406 0 0 0-20.855 7.252l-8.291-15.338a64.488 64.488 0 0 1 33.636-10.37c20.131 0 31.283 11.53 31.283 35.679v45.034h-19.045l-1.666-8.049h-.579a34.663 34.663 0 0 1-22.919 9.971 22.64 22.64 0 0 1-16.948-6.732 22.726 22.726 0 0 1-6.514-17.054Zm44.353-1.052v-13.778c-16.619 2.248-22.013 6.998-22.013 12.944 0 5.077 3.62 7.579 9.015 7.579 5.395 0 8.835-2.611 12.998-6.745Z" fill="#4E41F2"/>
  <path d="M617.581 149.063a23.484 23.484 0 0 1-17.65-6.972 23.542 23.542 0 0 1-6.753-17.757c0-17.151 13.686-26.325 44.281-29.733-.725-6.563-4.381-9.609-11.442-9.609-5.72 0-11.622 2.03-20.384 6.998l-.833.472-9.16-16.97.76-.471a65.394 65.394 0 0 1 34.107-10.479c21.072 0 32.224 12.655 32.224 36.586v46.013h-20.747l-1.593-7.687a34.84 34.84 0 0 1-22.81 9.609Zm8.436-65.956c8.328 0 12.817 4.133 13.361 12.292v.87h-.906c-38.56 4.061-43.448 17.078-43.448 27.956a21.783 21.783 0 0 0 6.237 16.389 21.719 21.719 0 0 0 16.284 6.455 33.069 33.069 0 0 0 22.303-9.754l.254-.218h1.701l1.666 8.086h17.343v-44.055c0-23.061-10.21-34.737-30.341-34.737a62.898 62.898 0 0 0-32.333 9.754l7.422 13.706a41.744 41.744 0 0 1 20.457-6.744Zm-.543 47.862c-6.3 0-9.957-3.082-9.957-8.484 0-7.252 7.242-11.785 22.811-13.888h1.05v15.229l-.254.29a18.762 18.762 0 0 1-6.097 4.881 18.717 18.717 0 0 1-7.553 1.972Zm12.057-20.377c-13.541 1.994-20.131 5.874-20.131 11.893 0 5.475 4.381 6.635 8.074 6.635a16.6 16.6 0 0 0 12.057-6.2v-12.328ZM764.762 106.821c0-25.6 18.103-41.373 37.148-41.373 22.412 0 33.528 16.354 33.528 37.855a51.28 51.28 0 0 1-.978 10.334h-47.069c2.064 11.422 9.885 16.68 20.421 16.68a32.943 32.943 0 0 0 17.017-5.149l7.712 14.069a51.33 51.33 0 0 1-27.951 8.883c-22.521 0-39.828-15.193-39.828-41.299Zm50.69-8.63c0-8.666-3.621-14.94-13.071-14.94-7.241 0-13.759 4.968-15.352 14.94h28.423Z" fill="#4E41F2"/>
  <path d="M804.59 149.063c-24.368 0-40.733-16.969-40.733-42.242a43.945 43.945 0 0 1 11.731-30.93 36.962 36.962 0 0 1 12.018-8.333 36.922 36.922 0 0 1 14.304-3.016c21.254 0 34.469 14.83 34.469 38.761a56.082 56.082 0 0 1-.977 10.552v.689h-46.707a18.135 18.135 0 0 0 6.791 11.145 18.085 18.085 0 0 0 12.507 3.685 31.619 31.619 0 0 0 16.547-5.04l.832-.471 8.581 15.664-.724.471a51.898 51.898 0 0 1-28.639 9.065Zm-2.68-82.672c-17.56 0-36.207 14.178-36.207 40.43 0 24.148 15.642 40.356 38.887 40.356a50.31 50.31 0 0 0 26.72-8.23l-6.843-12.51a33.423 33.423 0 0 1-16.655 4.823 19.86 19.86 0 0 1-14.201-4.424 19.914 19.914 0 0 1-7.161-13.054l-.181-1.087h47.467c.509-3.105.764-6.246.761-9.392 0-22.77-12.6-36.912-32.587-36.912Zm14.483 32.634h-30.45v-1.052c1.557-9.717 7.748-15.7 16.257-15.7s14.012 5.62 14.012 15.845l.181.907Zm-28.241-1.85h26.503c-.217-6.163-2.607-13.053-12.129-13.053-7.386.073-12.636 4.931-14.302 13.126l-.072-.072ZM723.269 68.603a22.427 22.427 0 0 1 8.69 8.231V66.5h21.724v72.773a41.678 41.678 0 0 1-3.874 18.13 30.006 30.006 0 0 1-11.804 13.017 37.333 37.333 0 0 1-19.769 4.859 40.371 40.371 0 0 1-25.526-7.651 28.988 28.988 0 0 1-7.785-9.165 29.05 29.05 0 0 1-3.403-11.539h21.471a10.628 10.628 0 0 0 4.816 6.599 17.468 17.468 0 0 0 9.413 2.393 14.473 14.473 0 0 0 10.862-3.989 17.454 17.454 0 0 0 3.983-12.727v-10.261a24.166 24.166 0 0 1-8.762 8.303 25.776 25.776 0 0 1-13.07 3.227 28.524 28.524 0 0 1-15.895-4.641 32.083 32.083 0 0 1-11.261-13.198 45.204 45.204 0 0 1-4.127-19.798 44.548 44.548 0 0 1 4.127-19.725 31.282 31.282 0 0 1 11.261-13.09 28.93 28.93 0 0 1 15.895-4.569 26.51 26.51 0 0 1 13.034 3.155Zm4.2 21.14a15.01 15.01 0 0 0-22.014 0 18.144 18.144 0 0 0-4.489 13.125 18.801 18.801 0 0 0 4.489 13.163 14.48 14.48 0 0 0 10.862 4.931 14.463 14.463 0 0 0 10.862-4.859 18.58 18.58 0 0 0 4.49-13.198 18.616 18.616 0 0 0-4.2-13.163Z" fill="#4E41F2"/>
  <path d="M718.236 175.968a41.163 41.163 0 0 1-25.924-7.796 29.78 29.78 0 0 1-11.405-21.14v-.652h22.629v.471a9.947 9.947 0 0 0 4.562 6.201 16.68 16.68 0 0 0 9.088 2.32 13.997 13.997 0 0 0 10.319-3.807 16.802 16.802 0 0 0 3.874-12.292v-8.34a25.333 25.333 0 0 1-7.893 6.853 26.542 26.542 0 0 1-13.36 3.264 29.305 29.305 0 0 1-16.221-4.714 32.612 32.612 0 0 1-11.477-13.452 45.742 45.742 0 0 1-4.2-20.052 45.446 45.446 0 0 1 4.2-20.015 32.108 32.108 0 0 1 11.477-13.307 29.658 29.658 0 0 1 16.221-4.678 27.269 27.269 0 0 1 13.433 3.227 23.905 23.905 0 0 1 7.82 6.744v-8.92h22.956v73.39a42.334 42.334 0 0 1-3.947 18.492 30.577 30.577 0 0 1-12.021 13.271 38.3 38.3 0 0 1-20.131 4.932Zm-36.207-28.355a28.542 28.542 0 0 0 3.423 10.923 28.49 28.49 0 0 0 7.439 8.693 39.972 39.972 0 0 0 25.345 7.506 36.89 36.89 0 0 0 19.443-4.75 29.718 29.718 0 0 0 11.587-12.727 41.676 41.676 0 0 0 3.801-18.13V67.116h-20.493v11.93l-1.122-1.922a22.604 22.604 0 0 0-8.473-8.013 26.216 26.216 0 0 0-12.853-3.046 28.281 28.281 0 0 0-15.569 4.46 31.063 31.063 0 0 0-11.043 12.872 44.54 44.54 0 0 0-4.055 19.471 44.29 44.29 0 0 0 4.091 19.508 31.066 31.066 0 0 0 10.862 12.945 27.774 27.774 0 0 0 15.569 4.568c4.46.106 8.869-.97 12.781-3.118a24.126 24.126 0 0 0 8.617-8.122l1.123-1.813v12.437a18.147 18.147 0 0 1-4.092 13.017 15.146 15.146 0 0 1-11.188 4.17 18.08 18.08 0 0 1-9.739-2.502 11.27 11.27 0 0 1-5.069-6.345h-20.385Zm34.252-26.035a15.003 15.003 0 0 1-11.441-5.076 19.454 19.454 0 0 1-4.671-13.67 18.982 18.982 0 0 1 4.671-13.561 15.602 15.602 0 0 1 11.441-5 15.589 15.589 0 0 1 11.441 5 19.195 19.195 0 0 1 4.671 13.597 19.231 19.231 0 0 1-4.634 13.706 15.094 15.094 0 0 1-11.297 5.004h-.181Zm0-36.042a13.92 13.92 0 0 0-10.246 4.569 17.783 17.783 0 0 0-4.345 12.727 18.147 18.147 0 0 0 4.345 12.836 14.223 14.223 0 0 0 10.536 4.673 14.227 14.227 0 0 0 10.536-4.673 18.146 18.146 0 0 0 4.345-12.8 18.148 18.148 0 0 0-4.345-12.763 13.904 13.904 0 0 0-10.645-4.569h-.181ZM548.716 68.603a22.425 22.425 0 0 1 8.689 8.231V66.5h21.724v72.773a41.678 41.678 0 0 1-3.874 18.13 30.01 30.01 0 0 1-11.803 13.017 37.337 37.337 0 0 1-19.769 4.859 40.365 40.365 0 0 1-25.345-7.651 29.004 29.004 0 0 1-11.441-20.632h21.724a10.614 10.614 0 0 0 4.815 6.599 17.472 17.472 0 0 0 9.414 2.394A14.475 14.475 0 0 0 553.712 152a17.46 17.46 0 0 0 3.983-12.727v-10.334a24.166 24.166 0 0 1-8.762 8.303 25.78 25.78 0 0 1-13.071 3.227 28.526 28.526 0 0 1-15.895-4.641 32.074 32.074 0 0 1-11.26-13.198 45.205 45.205 0 0 1-4.128-19.798 44.55 44.55 0 0 1 4.128-19.725 31.28 31.28 0 0 1 11.26-13.09 28.935 28.935 0 0 1 15.895-4.569 26.511 26.511 0 0 1 12.854 3.155Zm4.2 21.14a14.97 14.97 0 0 0-21.978 0 18.138 18.138 0 0 0-4.526 13.125 18.654 18.654 0 0 0 4.526 13.163 14.264 14.264 0 0 0 10.862 4.931 14.463 14.463 0 0 0 10.862-4.859 18.575 18.575 0 0 0 4.924-13.162 18.618 18.618 0 0 0-4.67-13.199Z" fill="#4E41F2"/>
  <path d="M543.683 175.968a41.234 41.234 0 0 1-25.924-7.796 29.768 29.768 0 0 1-7.927-9.366 29.802 29.802 0 0 1-3.479-11.774v-.652h22.63v.471a9.945 9.945 0 0 0 4.562 6.201 16.675 16.675 0 0 0 9.088 2.32 14.003 14.003 0 0 0 10.319-3.807 16.811 16.811 0 0 0 3.802-12.292v-8.34a25.37 25.37 0 0 1-7.821 6.853 26.546 26.546 0 0 1-13.361 3.264 29.374 29.374 0 0 1-16.22-4.714 32.622 32.622 0 0 1-11.478-13.452 45.742 45.742 0 0 1-4.2-20.052 45.46 45.46 0 0 1 4.2-20.015 32.117 32.117 0 0 1 11.478-13.307 29.657 29.657 0 0 1 16.22-4.678 27.266 27.266 0 0 1 13.433 3.227 23.545 23.545 0 0 1 7.785 6.744v-8.92h22.955v73.39a42.856 42.856 0 0 1-3.91 18.492 30.883 30.883 0 0 1-12.057 13.271 38.3 38.3 0 0 1-20.095 4.932Zm-36.026-28.355a28.524 28.524 0 0 0 10.862 19.616 39.973 39.973 0 0 0 25.164 7.506 36.89 36.89 0 0 0 19.443-4.75 29.722 29.722 0 0 0 11.586-12.727 41.677 41.677 0 0 0 3.802-18.13V67.116h-20.493v11.93l-1.123-1.922a22.609 22.609 0 0 0-8.472-8.013 26.22 26.22 0 0 0-12.854-3.046 28.286 28.286 0 0 0-15.569 4.46 30.746 30.746 0 0 0-10.862 12.836 44.044 44.044 0 0 0-4.091 19.471 44.29 44.29 0 0 0 4.091 19.508 31.072 31.072 0 0 0 10.862 12.944 27.777 27.777 0 0 0 15.569 4.569c4.461.105 8.869-.97 12.781-3.118a24.122 24.122 0 0 0 8.545-8.086l1.123-1.813v12.437a18.151 18.151 0 0 1-4.055 13.017 15.16 15.16 0 0 1-11.188 4.17 18.082 18.082 0 0 1-9.74-2.502 11.419 11.419 0 0 1-4.96-6.49l-20.421.145Zm34.252-26.035a15.008 15.008 0 0 1-11.442-5.076 19.595 19.595 0 0 1-4.67-13.67 19.126 19.126 0 0 1 4.67-13.561 15.606 15.606 0 0 1 11.442-5 15.606 15.606 0 0 1 11.441 5 19.2 19.2 0 0 1 4.671 13.597 19.238 19.238 0 0 1-4.671 13.634 15.103 15.103 0 0 1-5.171 3.781 15.074 15.074 0 0 1-6.27 1.295Zm0-36.042a13.924 13.924 0 0 0-10.537 4.569 17.782 17.782 0 0 0-4.344 12.727 18.146 18.146 0 0 0 4.344 12.836 14.208 14.208 0 0 0 16.298 3.452 14.24 14.24 0 0 0 4.775-3.452 18.15 18.15 0 0 0 4.345-12.8 18.148 18.148 0 0 0-4.345-12.763 13.902 13.902 0 0 0-10.536-4.569ZM128.028 67.805c-1.702-9.5-12.166-11.313-12.166-11.313-48.119-9.935-96.165 0-96.165 0a17.518 17.518 0 0 0-7.542 4.308 17.555 17.555 0 0 0-4.552 7.404 146.987 146.987 0 0 0 0 67.987 16.76 16.76 0 0 0 4.89 8.024 16.72 16.72 0 0 0 8.434 4.123c4.635.906 9.27 1.632 13.868 2.175l5.395 11.966a6.306 6.306 0 0 0 4.426 3.904 6.286 6.286 0 0 0 5.712-1.475l13.686-12.618a290.086 290.086 0 0 0 52.5-4.206 17.834 17.834 0 0 0 7.236-4.577 17.89 17.89 0 0 0 4.278-7.425 159.476 159.476 0 0 0 0-68.277Zm-39.575 47.319a21.208 21.208 0 0 1-7.929 10.662 21.163 21.163 0 0 1-12.709 3.842h-.217a21.163 21.163 0 0 1-12.708-3.842 21.208 21.208 0 0 1-7.93-10.662c-.507-1.849.616-2.683 1.774-2.683H86.68c1.159-.036 2.281.834 1.774 2.683Z" fill="#4E41F2"/>
</svg>